# xmcd
#
# Track frame offsets:
#	150
#	35063
#	59064
#	83774
#	110770
#	136156
#	163673
#	189889
#	221466
#	243920
#
# Disc length: 3640
#
# Revision: 1
# Processed by: cddbd v1.5.1PL0 Copyright (c) Steve Scherf et al.
# Submitted via: ExactAudioCopy v0.95a5
# Normalized: r0:TDELIM( - )
#
DISCID=890e360a
DTITLE=Way Out West - Intensify [DISNLP76]
DYEAR=2001
DGENRE=Electronic
TTITLE0=A1 - The Fall
TTITLE1=A2 - Intensify (Part 2)
TTITLE2=A3 - Activity
TTITLE3=B1 - Hypnotise
TTITLE4=B2 - Sharkhunt
TTITLE5=C1 - Mindcircus
TTITLE6=C2 - Stealth
TTITLE7=C3 - UB Devoid
TTITLE8=D1 - Call Me
TTITLE9=D2 - Secret
EXTD=
EXTT0=
EXTT1=
EXTT2=
EXTT3=
EXTT4=
EXTT5=
EXTT6=
EXTT7=
EXTT8=
EXTT9=
PLAYORDER=
